<?xml version="1.0" encoding="utf-8"?>
<!-- Generator: Adobe Illustrator 16.0.0, SVG Export Plug-In . SVG Version: 6.00 Build 0)  -->
<!DOCTYPE svg PUBLIC "-//W3C//DTD SVG 1.1//EN" "http://www.w3.org/Graphics/SVG/1.1/DTD/svg11.dtd">
<svg version="1.1" id="Layer_1" xmlns="http://www.w3.org/2000/svg" xmlns:xlink="http://www.w3.org/1999/xlink" x="0px" y="0px"
	 width="250px" height="250px" viewBox="0 0 250 250" enable-background="new 0 0 250 250" xml:space="preserve">
<path fill="#15406D" d="M238.259,157.123c-5.466,20.619-16.314,39.047-30.953,53.687c-21.579,21.579-51.392,34.927-84.321,34.927
	c-32.929,0-62.742-13.348-84.322-34.927c-14.638-14.64-25.487-33.067-30.952-53.687h5.453c5.335,19.163,15.549,36.294,29.222,49.966
	c20.625,20.626,49.123,33.386,80.599,33.386s59.972-12.76,80.601-33.386c13.674-13.672,23.886-30.803,29.219-49.966H238.259z
	 M22.468,72.692c-5.061,9.437-8.831,19.668-11.078,30.458h-5.37c2.043-10.293,5.411-20.11,9.917-29.264l6.528-1.193L22.468,72.692z
	 M229.925,73.671c4.561,9.216,7.964,19.105,10.023,29.479h-5.37c-2.293-11.017-6.175-21.451-11.397-31.05h0.002L229.925,73.671z
	 M122.984,7.239c30.991,0,59.221,11.823,80.426,31.206c0.08,0.074,0.379,0.348,0.46,0.422l-6.741,1.042h-0.002
	c-19.934-17.085-45.831-27.408-74.143-27.408c-28.452,0-54.469,10.426-74.439,27.663c-0.074,0.063-0.037,0.031-0.11,0.095
	l-7.008-0.768C62.754,19.49,91.439,7.239,122.984,7.239z"/>
<path fill-rule="evenodd" clip-rule="evenodd" fill="#15406D" d="M115.458,48.08l0.001-0.766c0,0-1.622-0.997-1.372-1.87
	c0.25-0.872,5.194-1.414,10.016-1.288c4.82,0.124,10.182,0.582,10.764,1.329c0.58,0.749-1.123,1.745-1.123,1.745l0.003,0.644
	c-0.781,0.082-2.19,0.781-3.208,0.842C125.735,48.995,119.314,48.385,115.458,48.08 M115.438,59.428l-0.05-3.426
	c8.633-0.906,9.666-0.217,18.495,0.73l-0.099,2.965C133.784,59.697,125.849,57.164,115.438,59.428z"/>
<path fill-rule="evenodd" clip-rule="evenodd" fill="#15406D" d="M112.303,76.756c-0.274-0.584,1.708-0.667,2.345-0.58
	c0.638,0.089,1.231,0.779,1.358,1.238c0.127,0.458,0,4.696,0,4.696l-2.325,0.414c0,0,0.068-3.365-0.06-3.865
	C113.495,78.16,112.303,76.756,112.303,76.756 M131.611,82.125c-2.027-0.496-3.993-0.302-3.993-0.302s-0.053-3.876,0.072-4.872
	c0.13-0.995,0.51-1.366,0.51-1.366s2.435-0.367,3.073,0.179c0.635,0.545,0.338,1.25,0.338,1.25V82.125z M137.124,76.968
	c0.274-0.579-2.084-0.703-2.72-0.625c-0.639,0.077-1.233,0.759-1.359,1.214c-0.127,0.456,0,4.696,0,4.696l2.676,0.521
	c0,0-0.128-3.576,0-4.072C135.85,78.204,137.124,76.968,137.124,76.968z M122.558,81.733c1.216-0.145,3.679,0.115,3.679,0.115
	l0.041-4.252c0,0,0.063-2.015-0.425-2.248c-0.486-0.233-1.958-0.329-2.658-0.066c-0.701,0.264-0.616,1.388-0.616,1.388
	L122.558,81.733z M139.776,157.123l2.668,34.743l-37.091,0.075l3.102-34.818h-2.82c-1.693,17.271-3.152,31.79-3.551,36.253
	l-0.152,1.703l43.895-0.091c-0.321-4.215-1.629-19.61-3.146-37.865H139.776z M120.711,85.231c1.214-0.016,2.61-0.046,4.202,0.003
	c5.337,0.162,8.146,0.67,9.424,0.988l1.298,16.927h2.733c-1.008-13.543-1.615-23.274-1.346-24.045
	c0.291-0.832,3.45-2.036,4.073-2.743c0.624-0.707,0.871-1.829-1.703-2.742c-2.452-0.871-10.298-1.463-17.24-1.44
	c-5.019,0.017-9.437,0.426-11.624,0.952c-1.241,0.298-1.985,0.7-2.18,1.235c-0.498,1.372,3.574,3.658,3.823,4.531
	c0.347,1.213-0.329,10.927-1.471,24.252h2.564l0.223-2.499C114.321,91.306,114.887,85.307,120.711,85.231z M117.362,81.87
	c2.029-0.461,4.071-0.1,4.071-0.1s0.054-3.875-0.073-4.873c-0.191-1.488-0.402-1.416-1.676-1.477
	c-0.805-0.039-1.793-0.017-2.148,0.281c-0.518,0.436-0.133,1.416-0.139,2.19L117.362,81.87z"/>
<path fill="#15406D" d="M114.99,63.561c-0.126,7.185,0.425,7.903,6.643,7.604c1.726-0.083,0.891-0.03,2.455-0.018
	c5.18,0.039,9.002,0.55,10.948,0.879L135,63.733c0.17-0.086,0.018-0.647-0.748-0.894c-0.638-0.206-0.955-0.279-2.021-0.521
	c-1.862-0.422-4.276-0.746-7.241-0.761l-0.327-0.001v0.004c-3.779,0-6.704,0.344-8.68,0.765
	C114.534,62.635,115.004,62.729,114.99,63.561 M112.479,72.807l0.15-8.547c-0.554-0.347-1.196-0.934-1.196-1.799l0.005-0.004
	c0.004-0.832,1.407-1.865,4.06-2.432c2.118-0.452,5.218-0.821,9.167-0.821v0.005L125,59.21c3.162,0.016,5.748,0.362,7.747,0.816
	c3.481,0.791,5.438,2.149,5.677,2.701c0.452,1.059-0.41,1.914-1.069,2.383l0.042,9.824l-1.448-0.34
	c-0.013-0.003-4.485-1.045-11.87-1.101c-1.496-0.013-3.075,0.021-4.789,0.104c-1.722,0.083-3.548,0.213-5.532,0.396l-1.302,0.12
	L112.479,72.807z"/>
<path fill-rule="evenodd" clip-rule="evenodd" fill="#15406D" d="M116.997,43.365c0,0,6.233-3.491,6.482-3.948
	c0.25-0.456,0.291-1.33,0.126-1.786c-0.167-0.458-0.042-1.247,0.436-1.746c0.478-0.498,1.018-1.08,1.018-1.08l1.018,1.267
	c0,0,0.457,0.541,0.394,1.081c-0.06,0.54-0.247,0.644-0.29,0.894c-0.04,0.248-0.083,1.143,0.188,1.412
	c0.271,0.27,6.96,4.447,6.96,4.447S123.833,41.849,116.997,43.365"/>
<path fill="#15406D" d="M132.916,57.039c-4.402-0.472-6.017,0.339-8.381,0.338c-2.364-0.001-4.453-1.026-8.755-0.574L15.718,79.924
	l3.033-6.553l3.715-0.678l0.005-0.001l92.96-16.821c4.329-0.453,6.667-1.005,9.103-1.004c2.441,0.001,4.998,0.445,9.429,0.918
	L223.179,72.1h0.004l6.597,1.282l0.146,0.29l-1.207,5.482L132.916,57.039z M115.504,47.493c2.336,0.185,5.783,0.253,9.194,0.213
	c3.398-0.038,4.781,0.574,6.997,0.338l64.552-11.908l4.232,3.135l-3.348,0.636l-62.903,8.878c-2.238,0.237-6.072,1.393-9.523,1.43
	c-3.462,0.039-6.878-1.263-9.223-1.448l-70.553-8.95c0.37-0.375,0.045-0.055-0.108,0.098l0.005,0.001l0.103-0.099l4.814-3.587
	l65.762,11.266V47.493z"/>
<path fill-rule="evenodd" clip-rule="evenodd" fill="#15406D" d="M74.451,232.55c21.524-3.132,67.854-8.973,93.968-5.539
	c3.955,0.521,7.665,1.009,11.156,1.46c-3.733,2.076-7.594,3.955-11.563,5.617c-17.018-1.54-34.024-2.948-47.775-2.497
	c-15.916,0.523-32.374,1.346-43.559,1.955C75.932,233.221,75.19,232.89,74.451,232.55 M101.927,241.202
	c6.383-1.206,13.158-2.108,20.949-2.413c10.877-0.425,19.39,0.552,25.139,1.618c0.782-0.17,1.56-0.348,2.335-0.535
	c-7.483-2.56-21.958-5.769-44.732-3.895c-6.476,0.534-12.134,1.193-17.246,1.901C92.784,239.246,97.309,240.36,101.927,241.202z
	 M86.617,204.332c7.043-3.269,6.259,0.469,11.976,1.174c0.103,0.011,3.669,1.453,5.43,1.67c0.298,0.038,8.341,4.991,4.178,3.122
	c-6.733-3.021-3.687-3.108-12.951-3.108C89.955,207.189,89.957,202.783,86.617,204.332z M148.167,188.526
	c6.53,0,6.587-2.826,11.522,3.19c0.427,0.521,3.834,1.498,5.733,3.216c3.081,2.78,4.301,5.327,7.913,8.275
	c0.595,0.483,4.429,4.773,5.606,5.406c0.029,0.014,4.299,4.697,5.584,5.5c0.02,0.01-1.864-0.75-4.851-3.561
	c-1.427-1.345-4.97-3.513-6.908-5.549c-2.787-2.928-4.156-0.479-4.676-5.107c-0.02-0.188-3.598-5.163-5.267-5.754
	c-3.998-1.418,0.195-0.875-5.569-1.429C157.031,192.691,149.999,188.526,148.167,188.526z M128.074,219.561
	c-22.36-5.42-47.82-2.122-70.777-1.17c7.348-6.001,16.612-14.893,21.291-16.302c0.015-0.004,3.984-3.975,7.28-8.294
	c3.582-4.697,6.614-9.811,9.264-10.701c3.387-1.136,11.222-11.972,20.709-7.615c2.9,1.332,3.714,1.086,7.698,3.221
	c1.229,0.662,7.755-0.049,11.689,1.424c2.01,0.751,1.91-1.316,6.64,1.92c3.99,2.731,11.333-4.956,18.108,3.652
	c2.936,3.729,11.634,7.243,13.317,11.007c1.33,2.974,13.611,13.229,20.716,20.874c0.474,0.096,0.946,0.196,1.416,0.297
	c-1.65,1.31-3.332,2.578-5.051,3.798c-2.035-0.182-4.089-0.335-6.149-0.454c-40.242-2.291-76.81,4.415-115.758,8.386
	c-4.038-2.14-7.931-4.512-11.668-7.095C79.947,221.094,107.706,217.395,128.074,219.561z"/>
<path fill-rule="evenodd" clip-rule="evenodd" fill="#15406D" d="M123.238,157.123c-2.21,7.296-5.393,12.981-9.948,15.558
	c0,0,3.551,1.252,5.64,1.879c2.089,0.628,3.063,1.812,5.361,2.646c2.298,0.835,1.951,1.046,4.039,1.255
	c2.088,0.207,4.444,2.326,4.444,2.326l3.075,2.27l3.829,2.436l-2.019-28.369H123.238z M127.771,91.703
	c0.066,3.049,0.18,6.974,0.241,11.447h5.809l-1.313-18.479l-5.223-0.14L127.771,91.703z"/>
<path fill-rule="evenodd" clip-rule="evenodd" fill="#15406D" d="M113.507,62.632c0,0,1.252-1.358,7.172-1.429
	c5.917-0.069,11.977,2.054,12.394,2.646c0.417,0.592,0.487,9.296,0.487,9.296l-11.455-0.558c3.021-2.047,8.986-6.932,2.293-8.896
	C120.45,62.534,113.507,62.632,113.507,62.632"/>
<path fill="#15406D" d="M182.013,133.828c0,4.242,0,7.695-0.23,9.533c-0.137,1.268-0.414,2.01-1.341,2.185
	c-0.417,0.089-0.969,0.175-1.665,0.175c-0.555,0-0.74,0.13-0.74,0.35c0,0.307,0.324,0.438,0.927,0.438
	c1.848,0,4.763-0.132,5.826-0.132c1.249,0,4.161,0.132,7.215,0.132c0.509,0,0.878-0.132,0.878-0.438c0-0.22-0.23-0.35-0.74-0.35
	c-0.693,0-1.71-0.086-2.358-0.175c-1.389-0.175-1.712-0.961-1.852-2.143c-0.183-1.88-0.183-5.333-0.183-9.575v-7.693
	c0-6.646,0-7.872,0.092-9.27c0.091-1.53,0.462-2.275,1.709-2.493c0.558-0.088,0.927-0.13,1.39-0.13c0.461,0,0.739-0.088,0.739-0.438
	c0-0.262-0.371-0.349-0.971-0.349c-1.758,0-4.485,0.131-5.641,0.131c-1.342,0-4.257-0.131-6.014-0.131
	c-0.738,0-1.107,0.087-1.107,0.349c0,0.35,0.275,0.438,0.738,0.438c0.555,0,1.157,0.042,1.666,0.174
	c1.018,0.219,1.479,0.961,1.57,2.449c0.092,1.397,0.092,2.624,0.092,9.27V133.828z M123.071,133.828c0,4.021,0,7.479-0.23,9.314
	c-0.141,1.268-0.418,2.229-1.342,2.403c-0.416,0.089-0.972,0.175-1.666,0.175c-0.553,0-0.739,0.13-0.739,0.35
	c0,0.307,0.324,0.438,0.925,0.438c1.85,0,4.762-0.132,5.825-0.132c1.297,0,4.21,0.132,7.263,0.132c0.508,0,0.879-0.132,0.879-0.438
	c0-0.22-0.232-0.35-0.743-0.35c-0.691,0-1.709-0.086-2.355-0.175c-1.388-0.175-1.665-1.136-1.803-2.361
	c-0.232-1.877-0.232-5.335-0.232-9.356v-17.926l5.828,0.132c4.113,0.086,5.363,1.311,5.455,2.448l0.047,0.481
	c0.047,0.656,0.139,0.875,0.508,0.875c0.276,0,0.37-0.263,0.415-0.699c0-1.136,0.141-4.154,0.141-5.072
	c0-0.657-0.046-0.918-0.37-0.918c-0.186,0-0.555,0.088-1.247,0.218c-0.696,0.088-1.713,0.219-3.192,0.219h-18.313
	c-1.525,0-3.283-0.088-4.624-0.219c-1.157-0.086-1.618-0.524-1.99-0.524c-0.277,0-0.415,0.262-0.555,0.83
	c-0.092,0.351-0.97,4.33-0.97,5.029c0,0.48,0.092,0.698,0.417,0.698c0.277,0,0.416-0.174,0.508-0.524
	c0.092-0.35,0.323-0.874,0.786-1.531c0.694-0.962,1.804-1.18,4.486-1.267l6.89-0.176V133.828z M83.966,133.828
	c0,4.021,0,7.479-0.23,9.314c-0.186,1.268-0.417,2.229-1.341,2.403c-0.415,0.089-0.971,0.175-1.666,0.175
	c-0.554,0-0.739,0.13-0.739,0.35c0,0.307,0.324,0.438,0.925,0.438c1.849,0,4.764-0.132,5.826-0.132c1.202,0,4.116,0.132,7.167,0.132
	c0.509,0,0.878-0.132,0.878-0.438c0-0.22-0.231-0.35-0.739-0.35c-0.694,0-1.711-0.086-2.359-0.175
	c-1.387-0.175-1.665-1.136-1.804-2.361c-0.231-1.877-0.231-5.335-0.231-9.356v-17.489c0-0.48,0.137-0.752,0.37-0.83
	c0.413-0.139,5.105-0.174,5.8-0.174c1.064,0,2.948,0.274,4.624,1.704c2.579,2.199,2.729,5.116,2.729,6.559
	c0,4.341-3.417,7.066-5.987,7.208c-0.068,0.004-4.136,0.007-4.206,0.007c-0.972,0-1.295,0.132-1.295,0.48
	c0,0.307,0.325,0.351,0.556,0.395c0.139,0.025,0.382,0.037,0.601,0.039c0.143,0.002,4.274,0.004,4.365,0.004
	c6.567,0,11.376-4.371,11.376-10.582c0-2.316-1.292-4.289-2.312-5.201c-0.736-0.66-2.82-2.493-8.602-2.493
	c-2.126,0-8.806,0.131-10.701,0.131c-1.294,0-4.208-0.131-6.659-0.131c-0.694,0-1.017,0.087-1.017,0.394
	c0,0.305,0.276,0.394,0.784,0.394c0.648,0,1.435,0.042,1.805,0.13c1.526,0.306,1.897,1.005,1.99,2.493
	c0.091,1.397,0.091,2.624,0.091,9.27V133.828z M52.246,133.172c-0.2,0-0.25-0.13-0.2-0.305l4.619-10.712
	c0.05-0.175,0.151-0.393,0.3-0.393c0.152,0,0.202,0.218,0.251,0.393l4.519,10.756c0.051,0.131,0,0.261-0.25,0.261H52.246z
	 M62.44,135.358c0.25,0,0.401,0.087,0.5,0.307l4.019,9.007c0.251,0.525-0.1,0.918-0.452,1.004c-0.501,0.045-0.703,0.132-0.703,0.395
	c0,0.307,0.604,0.307,1.506,0.351c4.018,0.088,7.683,0.088,9.492,0.088c1.856,0,2.31-0.088,2.31-0.438
	c0-0.307-0.252-0.35-0.654-0.35c-0.602,0-1.355-0.045-2.108-0.175c-1.055-0.218-2.511-0.829-4.42-4.765
	c-3.213-6.647-11.248-24.135-12.452-26.539c-0.502-1.005-0.804-1.399-1.255-1.399c-0.502,0-0.804,0.481-1.406,1.748l-12.604,27.107
	c-1.005,2.187-1.958,3.674-4.268,3.938c-0.402,0.041-1.106,0.086-1.558,0.086c-0.401,0-0.602,0.087-0.602,0.35
	c0,0.351,0.301,0.438,0.955,0.438c2.61,0,5.372-0.132,5.924-0.132c1.557,0,3.715,0.132,5.323,0.132c0.552,0,0.854-0.088,0.854-0.438
	c0-0.263-0.15-0.35-0.753-0.35h-0.753c-1.557,0-2.009-0.568-2.009-1.355c0-0.523,0.25-1.574,0.753-2.668l2.711-5.987
	c0.101-0.265,0.201-0.352,0.453-0.352H62.44z M27.104,147.122c2.959,0,6.475-0.307,8.324-1.007c0.787-0.308,0.97-0.525,1.203-1.269
	c0.462-1.485,1.018-5.289,1.018-5.814c0-0.35-0.093-0.656-0.417-0.656c-0.37,0-0.462,0.175-0.601,0.875
	c-0.186,0.786-0.787,2.057-1.572,2.886c-1.85,2.011-4.348,2.448-8.463,2.448c-6.197,0-14.567-5.16-14.567-15.564
	c0-4.242,0.878-8.396,4.254-11.325c2.034-1.748,4.671-2.711,8.693-2.711c4.255,0,7.862,1.181,9.389,2.711
	c1.156,1.137,1.757,2.667,1.804,4.022c0,0.612,0.092,0.962,0.462,0.962c0.417,0,0.509-0.35,0.555-1.006
	c0.092-0.875,0.046-3.28,0.138-4.722c0.093-1.531,0.232-2.056,0.232-2.406c0-0.262-0.185-0.48-0.694-0.523
	c-1.387-0.132-2.867-0.526-4.624-0.743c-2.127-0.263-3.838-0.438-6.706-0.438c-6.89,0-11.283,1.748-14.613,4.633
	c-4.439,3.848-5.41,9.008-5.41,11.982c0,4.24,1.202,9.135,5.733,12.896C15.451,145.808,20.769,147.122,27.104,147.122z
	 M150.817,133.172c-0.201,0-0.253-0.13-0.201-0.305l4.621-10.712c0.049-0.175,0.149-0.393,0.3-0.393s0.2,0.218,0.251,0.393
	l4.518,10.756c0.053,0.131,0,0.261-0.249,0.261H150.817z M161.01,135.358c0.251,0,0.401,0.087,0.5,0.307l4.021,9.007
	c0.25,0.525-0.101,0.918-0.451,1.004c-0.503,0.045-0.705,0.132-0.705,0.395c0,0.307,0.604,0.307,1.508,0.351
	c4.017,0.088,7.683,0.088,9.49,0.088c1.858,0,2.311-0.088,2.311-0.438c0-0.307-0.252-0.35-0.654-0.35
	c-0.601,0-1.354-0.045-2.107-0.175c-1.055-0.218-2.514-0.829-4.418-4.765c-3.217-6.647-11.248-24.135-12.454-26.539
	c-0.504-1.005-0.802-1.399-1.256-1.399c-0.504,0-0.805,0.481-1.406,1.748l-12.604,27.107c-1.006,2.187-1.958,3.674-4.269,3.938
	c-0.402,0.041-1.104,0.086-1.557,0.086c-0.401,0-0.604,0.087-0.604,0.35c0,0.351,0.303,0.438,0.955,0.438
	c2.61,0,5.373-0.132,5.926-0.132c1.556,0,3.715,0.132,5.321,0.132c0.553,0,0.855-0.088,0.855-0.438c0-0.263-0.153-0.35-0.754-0.35
	h-0.753c-1.557,0-2.007-0.568-2.007-1.355c0-0.523,0.247-1.574,0.75-2.668l2.712-5.987c0.101-0.265,0.201-0.352,0.454-0.352H161.01z
	 M203.681,122.331h0.138c0.835,0.831,5.967,6.164,11,10.887c4.808,4.502,10.728,10.231,13.634,12.853
	c0.508,0.48,1.064,0.964,1.572,0.964c0.416,0,0.6-0.393,0.6-1.358l0.511-27.587c0.028-1.506,0.229-3.847,2.265-3.847
	c0.555,0,0.83-0.132,0.83-0.394c0-0.352-0.459-0.394-1.062-0.394c-2.268,0-3.188,0.131-3.699,0.131
	c-0.972,0-2.359-0.131-4.754-0.131c-0.692,0-1.203,0.042-1.203,0.394c0,0.262,0.187,0.394,0.74,0.394c0.648,0,0.925,0,1.611,0.262
	c1.108,0.437,1.525,1.269,1.572,3.935l0.462,19.632h-0.23c-0.787-0.698-7.023-6.996-10.168-9.969
	c-6.744-6.34-13.771-13.336-14.327-13.904c-0.795-0.788-1.21-1.355-1.718-1.355c-0.464,0-0.603,0.612-0.603,1.486l-0.414,25.753
	c-0.047,3.802-0.232,5.07-1.436,5.421c-0.646,0.173-1.479,0.218-2.082,0.218c-0.461,0-0.739,0.087-0.739,0.35
	c0,0.394,0.417,0.438,1.02,0.438c2.402,0,4.576-0.132,4.995-0.132c0.884,0,2.734,0.132,5.737,0.132c0.649,0,1.064-0.088,1.064-0.438
	c0-0.263-0.276-0.35-0.783-0.35c-0.74,0-1.62-0.045-2.404-0.305c-0.927-0.307-1.528-1.444-1.621-4.854L203.681,122.331z"/>
<path fill-rule="evenodd" clip-rule="evenodd" fill="#15406D" d="M240.136,114.5c0-0.063,0.018-0.09,0.074-0.108
	c0.08-0.017,0.271-0.027,0.469-0.027c0.469,0,1.209,0.28,1.209,1.363c0,0.631-0.271,0.966-0.513,1.137
	c-0.137,0.1-0.247,0.126-0.563,0.126c-0.198,0-0.432-0.018-0.603-0.073c-0.057-0.027-0.074-0.053-0.074-0.135V114.5z
	 M239.125,117.54c0,0.705,0,1.309-0.035,1.632c-0.026,0.226-0.071,0.372-0.235,0.408c-0.072,0.018-0.161,0.027-0.278,0.027
	c-0.099,0-0.126,0.044-0.126,0.082c0,0.053,0.054,0.08,0.152,0.08c0.318,0,0.823-0.027,0.975-0.027c0.119,0,0.775,0.027,1.235,0.027
	c0.101,0,0.165-0.027,0.165-0.08c0-0.038-0.037-0.082-0.099-0.082c-0.102,0-0.273-0.009-0.39-0.027
	c-0.245-0.036-0.279-0.182-0.307-0.408c-0.039-0.323-0.047-0.919-0.047-1.632v-0.108c0-0.044,0.029-0.063,0.064-0.063l0.713,0.019
	c0.055,0,0.1,0.008,0.145,0.055c0.1,0.117,0.434,0.631,0.748,1.046c0.441,0.595,0.739,0.955,1.084,1.127
	c0.19,0.1,0.391,0.146,0.763,0.153c-0.72,0.68-1.693,1.097-2.761,1.097c-1.111,0-2.117-0.452-2.846-1.179
	c-0.726-0.727-1.179-1.733-1.179-2.844c0-1.112,0.453-2.118,1.179-2.846c0.729-0.728,1.734-1.179,2.846-1.179
	c1.11,0,2.117,0.451,2.846,1.179c0.726,0.728,1.178,1.734,1.178,2.846c0,0.988-0.357,1.893-0.947,2.592
	c-0.124-0.072-0.269-0.181-0.439-0.351c-0.478-0.478-1.036-1.173-1.741-2.038c0.776-0.624,1.103-1.129,1.103-1.697
	c0-0.514-0.335-0.903-0.562-1.056c-0.422-0.28-0.998-0.325-1.506-0.325c-0.243,0-0.964,0.018-1.235,0.018
	c-0.161,0-0.666-0.018-1.083-0.018c-0.117,0-0.182,0.018-0.182,0.072c0,0.055,0.056,0.081,0.137,0.081
	c0.117,0,0.253,0.01,0.315,0.027c0.253,0.072,0.324,0.152,0.343,0.415c0.008,0.243,0.008,0.459,0.008,1.623V117.54z
	 M240.892,112.019c1.332,0,2.537,0.54,3.408,1.413c0.875,0.874,1.413,2.078,1.413,3.411c0,1.33-0.538,2.537-1.413,3.409
	c-0.871,0.872-2.076,1.412-3.408,1.412c-1.331,0-2.538-0.541-3.411-1.412c-0.872-0.873-1.414-2.079-1.414-3.409
	c0-1.333,0.542-2.537,1.414-3.411C238.354,112.559,239.561,112.019,240.892,112.019z"/>
</svg>
