<?xml version="1.0" encoding="utf-8"?>
<!-- Generator: Adobe Illustrator 17.0.0, SVG Export Plug-In . SVG Version: 6.00 Build 0)  -->
<!DOCTYPE svg PUBLIC "-//W3C//DTD SVG 1.1//EN" "http://www.w3.org/Graphics/SVG/1.1/DTD/svg11.dtd">
<svg version="1.1" id="Livello_1" xmlns="http://www.w3.org/2000/svg" xmlns:xlink="http://www.w3.org/1999/xlink" x="0px" y="0px"
	 width="24px" height="24px" viewBox="0 0 24 24" enable-background="new 0 0 24 24" xml:space="preserve">
<path fill="#FFFFFF" d="M11.751,16.179c-0.389,0-0.739,0.141-0.994,0.37c-0.252,0.226-0.409,0.543-0.409,0.892
	c0,0.348,0.157,0.664,0.409,0.89c0.255,0.229,0.605,0.37,0.994,0.37c0.389,0,0.739-0.141,0.991-0.37
	c0.255-0.228,0.412-0.542,0.412-0.89c0-0.348-0.157-0.664-0.412-0.892C12.49,16.32,12.14,16.179,11.751,16.179z"/>
<path fill="#FFFFFF" d="M15.316,6.497c-0.37-0.537-0.891-0.986-1.501-1.3C13.204,4.882,12.499,4.7,11.748,4.7
	c-0.577,0-1.128,0.106-1.63,0.298C9.614,5.189,9.163,5.466,8.782,5.807C8.404,6.147,8.096,6.553,7.883,7.005
	C7.668,7.456,7.55,7.952,7.55,8.47c0,0.348,0.157,0.664,0.412,0.892C8.216,9.589,8.567,9.73,8.956,9.73
	c0.387,0,0.736-0.141,0.991-0.368c0.255-0.228,0.412-0.543,0.412-0.892c0-0.17,0.039-0.335,0.109-0.483
	c0.07-0.15,0.173-0.284,0.299-0.397c0.126-0.113,0.277-0.206,0.442-0.269c0.165-0.064,0.35-0.099,0.538-0.099
	c0.384,0,0.731,0.142,0.983,0.37c0.468,0.421,0.546,1.14,0.176,1.637c-0.132,0.18-0.311,0.317-0.496,0.461
	c-0.493,0.382-1.008,0.782-1.403,1.416c-0.392,0.634-0.661,1.5-0.661,2.814c0,0.347,0.157,0.663,0.409,0.89
	c0.255,0.229,0.605,0.37,0.994,0.37c0.387,0,0.739-0.141,0.991-0.37c0.255-0.228,0.412-0.543,0.412-0.89
	c0-0.743,0.143-1.226,0.35-1.572c0.207-0.346,0.479-0.557,0.737-0.758c0.243-0.187,0.482-0.371,0.697-0.576
	c0.219-0.205,0.418-0.433,0.574-0.703c0.134-0.224,0.244-0.483,0.319-0.782c0.168-0.68,0.165-1.453-0.056-2.123
	C15.666,7.082,15.512,6.777,15.316,6.497z"/>
<path fill="#FFFFFF" d="M20.083,3.461c-2.208-2.219-5.15-3.448-8.33-3.461C8.615,0,5.665,1.219,3.446,3.434
	C1.224,5.654,0,8.608,0,11.75c0,0.801,0.08,1.599,0.237,2.372c0.154,0.753,0.384,1.497,0.685,2.21
	c0.892,2.115,2.375,3.909,4.29,5.187c1.928,1.288,4.172,1.974,6.49,1.981h0.044c0,0,0,0,0,0c3.137,0,6.086-1.22,8.305-3.434
	c2.224-2.224,3.448-5.177,3.448-8.316C23.5,8.621,22.286,5.677,20.083,3.461z M2.156,13.729c-0.131-0.657-0.198-1.322-0.198-1.979
	c0-2.619,1.021-5.082,2.874-6.935c1.848-1.843,4.305-2.858,6.919-2.858V1.709c0,0,0,0,0,0l0.04,0.248
	c1.934,0.01,3.803,0.58,5.406,1.65c1.598,1.068,2.833,2.563,3.573,4.323c0.502,1.189,0.768,2.51,0.768,3.82
	c0,1.31-0.266,2.63-0.768,3.819c-0.751,1.779-1.999,3.282-3.609,4.347c-1.608,1.063-3.479,1.626-5.453,1.626c0,0,0,0,0,0
	c-1.929-0.007-3.798-0.577-5.405-1.649c-1.595-1.067-2.831-2.562-3.574-4.322C2.476,14.968,2.283,14.348,2.156,13.729z
	 M11.746,23.248C11.746,23.248,11.746,23.248,11.746,23.248l0,0.002L11.746,23.248z"/>
</svg>
