<?xml version="1.0" encoding="utf-8"?>
<!-- Generator: Adobe Illustrator 17.0.0, SVG Export Plug-In . SVG Version: 6.00 Build 0)  -->
<!DOCTYPE svg PUBLIC "-//W3C//DTD SVG 1.1//EN" "http://www.w3.org/Graphics/SVG/1.1/DTD/svg11.dtd">
<svg version="1.1" id="Livello_1" xmlns="http://www.w3.org/2000/svg" xmlns:xlink="http://www.w3.org/1999/xlink" x="0px" y="0px"
	 width="24px" height="24px" viewBox="0 0 24 24" enable-background="new 0 0 24 24" xml:space="preserve">
<path fill="#FFFFFF" d="M11.155,0C5.006,0,0,4.936,0,11s5.006,11,11.155,11c2.375,0,4.571-0.75,6.371-2
	c0.42-0.291,0.521-0.863,0.226-1.277c-0.295-0.414-0.875-0.514-1.295-0.223c-1.507,1.046-3.323,1.667-5.302,1.667
	c-5.145,0-9.296-4.093-9.296-9.167s4.151-9.167,9.296-9.167c1.979,0,3.795,0.621,5.302,1.667c0.42,0.291,1,0.192,1.296-0.222
	C18.048,2.864,17.947,2.292,17.527,2l0,0C15.726,0.75,13.531,0,11.155,0z"/>
<path fill="#FFFFFF" d="M18.331,6.408c-0.513,0-0.93,0.411-0.929,0.917c0,0.247,0.102,0.484,0.281,0.657l2.132,2.102H9.973
	c-0.513-0.007-0.936,0.397-0.943,0.904c-0.007,0.506,0.403,0.922,0.916,0.93c0.009,0,0.018,0,0.026,0h9.841l-2.132,2.102
	c-0.37,0.351-0.382,0.931-0.027,1.296s0.944,0.377,1.315,0.026c0.009-0.009,0.018-0.017,0.027-0.026l3.637-3.586
	c0.408-0.307,0.487-0.882,0.175-1.285c-0.051-0.066-0.11-0.124-0.177-0.174l-3.635-3.584C18.822,6.508,18.582,6.408,18.331,6.408z"
	/>
</svg>
