<?xml version="1.0" encoding="utf-8"?>
<!-- Generator: Adobe Illustrator 17.0.0, SVG Export Plug-In . SVG Version: 6.00 Build 0)  -->
<!DOCTYPE svg PUBLIC "-//W3C//DTD SVG 1.1//EN" "http://www.w3.org/Graphics/SVG/1.1/DTD/svg11.dtd">
<svg version="1.1" id="Livello_1" xmlns="http://www.w3.org/2000/svg" xmlns:xlink="http://www.w3.org/1999/xlink" x="0px" y="0px"
	 width="24px" height="24px" viewBox="0 0 24 24" enable-background="new 0 0 24 24" xml:space="preserve">
<g>
	<path fill="#FFFFFF" d="M11.5,12.5c2.206,0,4-1.795,4-4s-1.794-4-4-4s-4,1.794-4,4S9.294,12.5,11.5,12.5z M11.5,6.25
		c1.241,0,2.25,1.009,2.25,2.249s-1.01,2.249-2.25,2.249S9.251,9.74,9.251,8.5S10.26,6.25,11.5,6.25z"/>
	<path fill="#FFFFFF" d="M11.5,0C5.159,0,0,5.159,0,11.5C0,17.842,5.159,23,11.5,23C17.842,23,23,17.842,23,11.5
		C23,5.159,17.842,0,11.5,0z M17.34,18.936c-1.679,1.334-3.699,2.038-5.84,2.038c-2.142,0-4.161-0.705-5.839-2.038l-0.095-0.075
		l0.052-0.109c0.546-1.144,3.744-2.161,5.881-2.161c2.148,0,5.348,1.018,5.882,2.162l0.05,0.109L17.34,18.936z M19.032,17.22
		l-0.116,0.153l-0.123-0.148c-1.636-1.991-5.693-2.66-7.293-2.66s-5.658,0.669-7.293,2.66l-0.122,0.148L3.969,17.22
		c-1.271-1.669-1.942-3.647-1.942-5.72c0-5.224,4.25-9.474,9.474-9.474c5.223,0,9.474,4.25,9.474,9.474
		C20.975,13.573,20.303,15.551,19.032,17.22z"/>
</g>
</svg>
